<svg width="22" height="22" viewBox="0 0 22 22" fill="none" xmlns="http://www.w3.org/2000/svg">
<g clip-path="url(#clip0_2_2721)">
<path d="M15.2075 8.25H13.75V3.66667C13.75 3.1625 13.3375 2.75 12.8334 2.75H9.16671C8.66254 2.75 8.25004 3.1625 8.25004 3.66667V8.25H6.79254C5.97671 8.25 5.56421 9.24 6.14171 9.8175L10.3492 14.025C10.7067 14.3825 11.2842 14.3825 11.6417 14.025L15.8492 9.8175C16.4267 9.24 16.0234 8.25 15.2075 8.25ZM4.58337 17.4167C4.58337 17.9208 4.99587 18.3333 5.50004 18.3333H16.5C17.0042 18.3333 17.4167 17.9208 17.4167 17.4167C17.4167 16.9125 17.0042 16.5 16.5 16.5H5.50004C4.99587 16.5 4.58337 16.9125 4.58337 17.4167Z" fill="#4D4D4D"/>
</g>
<defs>
<clipPath id="clip0_2_2721">
<rect width="22" height="22" fill="white"/>
</clipPath>
</defs>
</svg>
